# xmcd
#
# Track frame offsets: 
#        150
#        7389
#        23130
#        35392
#        49562
#        61716
#        82651
#        106152
#        120528
#        134529
#        157679
#        197442
#        214416
#
# Disc length: 3058 seconds
#
# Revision: 0
# Processed by: cddbd v1.5.2PL0 Copyright (c) Steve Scherf et al.
# Submitted via: ExactAudioCopy v0.99pb4
#
DISCID=9c0bf00d
DTITLE=Various Artist - Enjoy the Experience - Homemade Records 1958-
DTITLE=2004
DYEAR=1974
DGENRE=Soul
TTITLE0=The Muzzy Band - How Was It? (Intro)
TTITLE1=Invaders - Spacing Out
TTITLE2=Sherry Emata - Heaven On Their Minds
TTITLE3=Ray Torske - 666
TTITLE4=Carol-Leigh and Hank Midlin - Inquire Within
TTITLE5=Gary Schneider - Cast Your Fate to the Wind and the Breeze and I
TTITLE6=Medico Doktor Vibes - Diska Limba Man
TTITLE7=33.333333333 - Monkey Bridge
TTITLE8=Michael Farneti - Good Morning Kisses
TTITLE9=Gary Wilson - 6.4 =Make Out
TTITLE10=Silk and Silver - Elton John Medley
TTITLE11=Jade - Music Slave
TTITLE12=Joe - Come On Sign
EXTD=
EXTT0=
EXTT1=
EXTT2=
EXTT3=
EXTT4=
EXTT5=
EXTT6=
EXTT7=
EXTT8=
EXTT9=
EXTT10=
EXTT11=
EXTT12=
PLAYORDER=
